<?xml version="1.0" encoding="UTF-8"?>
<svg id="Layer_1" xmlns="http://www.w3.org/2000/svg" version="1.1" viewBox="0 0 170.08 170.08">
  <!-- Generator: Adobe Illustrator 30.2.1, SVG Export Plug-In . SVG Version: 2.1.1 Build 1)  -->
  <defs>
    <style>
      .st0 {
        fill: #006a44;
      }

      .st1 {
        fill: #c1272d;
      }

      .st2 {
        stroke: #fff;
        stroke-miterlimit: 10;
        stroke-width: .2px;
      }

      .st2, .st3 {
        fill: #fff;
      }

      .st4 {
        fill: #000006;
      }

      .st5 {
        fill: #007cc3;
      }

      .st6 {
        fill: #fdb913;
      }

      .st7 {
        fill: #9f1c36;
      }
    </style>
  </defs>
  <g>
    <polygon class="st6" points="27.73 99.11 39.67 106.01 44.02 108.52 44.02 127.32 27.72 136.74 11.43 127.32 11.43 108.52 27.73 99.11"/>
    <polygon class="st0" points="64.24 98.88 80.54 108.28 80.54 127.1 64.24 136.51 47.94 127.1 47.94 108.28 64.24 98.88"/>
    <polygon class="st1" points="104.98 99.1 121.28 108.52 121.28 127.33 104.98 136.74 88.68 127.33 88.68 108.52 104.98 99.1"/>
    <polygon class="st7" points="30.44 73.56 46.74 64.15 58.41 70.9 63.03 73.56 63.03 92.38 46.74 101.78 30.44 92.37 30.44 73.56"/>
    <polygon class="st7" points="106.54 76.1 122.57 66.85 134.06 73.48 138.6 76.1 138.6 94.62 122.58 103.87 106.54 94.61 106.54 76.1"/>
    <polygon class="st3" points="126.27 61.47 126.27 42.71 143.18 33.24 158.88 43.15 158.87 61.48 142.58 70.89 126.27 61.47"/>
    <polygon class="st5" points="49.71 43.49 66.01 33.33 83.05 43.74 83.05 61.23 65.79 70.87 49.84 61.41 49.71 43.49"/>
    <polygon class="st4" points="104.55 34.15 120.3 43.24 120.3 61.9 104.76 70.87 88.46 61.46 88.46 43.44 104.55 34.15"/>
    <polygon class="st2" points="126.4 61.52 126.4 42.76 143.31 33.3 159.01 43.2 159 61.53 142.71 70.94 126.4 61.52"/>
  </g>
  <polygon class="st2" points="68.94 94.15 68.94 75.39 85.85 65.92 101.55 75.83 101.54 94.16 85.25 103.57 68.94 94.15"/>
</svg>